<mxfile host="Electron" agent="Mozilla/5.0 (Windows NT 10.0; Win64; x64) AppleWebKit/537.36 (KHTML, like Gecko) draw.io/24.7.17 Chrome/128.0.6613.36 Electron/32.0.1 Safari/537.36" version="24.7.17">
  <diagram name="페이지-1" id="PuGsQlpJSFYzDp2MAoeP">
    <mxGraphModel dx="1687" dy="984" grid="1" gridSize="10" guides="1" tooltips="1" connect="1" arrows="1" fold="1" page="1" pageScale="1" pageWidth="827" pageHeight="1169" math="0" shadow="0">
      <root>
        <mxCell id="0" />
        <mxCell id="1" parent="0" />
        <mxCell id="e1at3lpBmyxFYmU1K-rE-27" value="" style="rounded=0;whiteSpace=wrap;html=1;" vertex="1" parent="1">
          <mxGeometry x="40" y="320" width="1580" height="640" as="geometry" />
        </mxCell>
        <mxCell id="e1at3lpBmyxFYmU1K-rE-11" style="edgeStyle=orthogonalEdgeStyle;rounded=0;orthogonalLoop=1;jettySize=auto;html=1;entryX=0.5;entryY=0;entryDx=0;entryDy=0;endArrow=none;endFill=0;" edge="1" parent="1" source="e1at3lpBmyxFYmU1K-rE-1" target="e1at3lpBmyxFYmU1K-rE-2">
          <mxGeometry relative="1" as="geometry" />
        </mxCell>
        <mxCell id="e1at3lpBmyxFYmU1K-rE-1" value="&lt;p style=&quot;margin:0px;margin-top:4px;text-align:center;&quot;&gt;&lt;b&gt;OrderState&lt;/b&gt;&lt;/p&gt;&lt;hr size=&quot;1&quot; style=&quot;border-style:solid;&quot;&gt;&lt;p style=&quot;margin:0px;margin-left:4px;&quot;&gt;&lt;br&gt;&lt;/p&gt;" style="verticalAlign=top;align=left;overflow=fill;html=1;whiteSpace=wrap;" vertex="1" parent="1">
          <mxGeometry x="339" y="380" width="150" height="60" as="geometry" />
        </mxCell>
        <mxCell id="e1at3lpBmyxFYmU1K-rE-22" style="edgeStyle=orthogonalEdgeStyle;rounded=0;orthogonalLoop=1;jettySize=auto;html=1;exitX=0.244;exitY=0.998;exitDx=0;exitDy=0;entryX=0.5;entryY=0;entryDx=0;entryDy=0;exitPerimeter=0;endArrow=none;endFill=0;" edge="1" parent="1" source="e1at3lpBmyxFYmU1K-rE-2" target="e1at3lpBmyxFYmU1K-rE-6">
          <mxGeometry relative="1" as="geometry" />
        </mxCell>
        <mxCell id="e1at3lpBmyxFYmU1K-rE-2" value="&lt;p style=&quot;margin:0px;margin-top:4px;text-align:center;&quot;&gt;&lt;b&gt;Order&lt;/b&gt;&lt;/p&gt;&lt;hr size=&quot;1&quot; style=&quot;border-style:solid;&quot;&gt;&lt;p style=&quot;margin:0px;margin-left:4px;&quot;&gt;+ orderNumber: String&lt;/p&gt;&lt;p style=&quot;margin:0px;margin-left:4px;&quot;&gt;+ totalAmounts: Money&lt;/p&gt;&lt;hr size=&quot;1&quot; style=&quot;border-style:solid;&quot;&gt;&lt;p style=&quot;margin:0px;margin-left:4px;&quot;&gt;+ changeShipping(shipping:ShippingInfo)&lt;/p&gt;&lt;p style=&quot;margin:0px;margin-left:4px;&quot;&gt;+ cancel()&lt;/p&gt;" style="verticalAlign=top;align=left;overflow=fill;html=1;whiteSpace=wrap;" vertex="1" parent="1">
          <mxGeometry x="279" y="490" width="270" height="110" as="geometry" />
        </mxCell>
        <mxCell id="e1at3lpBmyxFYmU1K-rE-3" value="&lt;p style=&quot;margin:0px;margin-top:4px;text-align:center;&quot;&gt;&lt;b&gt;Orderer&lt;/b&gt;&lt;/p&gt;&lt;hr size=&quot;1&quot; style=&quot;border-style:solid;&quot;&gt;&lt;p style=&quot;margin:0px;margin-left:4px;&quot;&gt;+ name: String&lt;/p&gt;" style="verticalAlign=top;align=left;overflow=fill;html=1;whiteSpace=wrap;" vertex="1" parent="1">
          <mxGeometry x="123" y="490" width="120" height="50" as="geometry" />
        </mxCell>
        <mxCell id="e1at3lpBmyxFYmU1K-rE-4" value="&lt;p style=&quot;margin:0px;margin-top:4px;text-align:center;&quot;&gt;&lt;b&gt;DeliveryStatus&lt;/b&gt;&lt;/p&gt;&lt;hr size=&quot;1&quot; style=&quot;border-style:solid;&quot;&gt;&lt;p style=&quot;margin:0px;margin-left:4px;&quot;&gt;&lt;br&gt;&lt;/p&gt;" style="verticalAlign=top;align=left;overflow=fill;html=1;whiteSpace=wrap;" vertex="1" parent="1">
          <mxGeometry x="123" y="550" width="120" height="50" as="geometry" />
        </mxCell>
        <mxCell id="e1at3lpBmyxFYmU1K-rE-16" style="edgeStyle=orthogonalEdgeStyle;rounded=0;orthogonalLoop=1;jettySize=auto;html=1;exitX=0;exitY=0.75;exitDx=0;exitDy=0;entryX=1;entryY=0.75;entryDx=0;entryDy=0;endArrow=none;endFill=0;" edge="1" parent="1">
          <mxGeometry relative="1" as="geometry">
            <mxPoint x="609.9999999999999" y="556.5" as="sourcePoint" />
            <mxPoint x="549" y="556.5" as="targetPoint" />
          </mxGeometry>
        </mxCell>
        <mxCell id="e1at3lpBmyxFYmU1K-rE-19" style="edgeStyle=orthogonalEdgeStyle;rounded=0;orthogonalLoop=1;jettySize=auto;html=1;entryX=0.5;entryY=0;entryDx=0;entryDy=0;endArrow=none;endFill=0;" edge="1" parent="1" source="e1at3lpBmyxFYmU1K-rE-5" target="e1at3lpBmyxFYmU1K-rE-10">
          <mxGeometry relative="1" as="geometry" />
        </mxCell>
        <mxCell id="e1at3lpBmyxFYmU1K-rE-5" value="&lt;p style=&quot;margin:0px;margin-top:4px;text-align:center;&quot;&gt;&lt;b&gt;OrderLine&lt;/b&gt;&lt;/p&gt;&lt;hr size=&quot;1&quot; style=&quot;border-style:solid;&quot;&gt;&lt;p style=&quot;margin:0px;margin-left:4px;&quot;&gt;+ price: Money&lt;/p&gt;&lt;p style=&quot;margin:0px;margin-left:4px;&quot;&gt;+ quantity: Int&lt;/p&gt;&lt;hr size=&quot;1&quot; style=&quot;border-style:solid;&quot;&gt;&lt;p style=&quot;margin:0px;margin-left:4px;&quot;&gt;+ amounts(): Money&lt;/p&gt;&lt;p style=&quot;margin:0px;margin-left:4px;&quot;&gt;&lt;br&gt;&lt;/p&gt;" style="verticalAlign=top;align=left;overflow=fill;html=1;whiteSpace=wrap;" vertex="1" parent="1">
          <mxGeometry x="588" y="490" width="150" height="110" as="geometry" />
        </mxCell>
        <mxCell id="e1at3lpBmyxFYmU1K-rE-6" value="&lt;p style=&quot;margin:0px;margin-top:4px;text-align:center;&quot;&gt;&lt;b&gt;ShippingInfo&lt;/b&gt;&lt;/p&gt;&lt;hr size=&quot;1&quot; style=&quot;border-style:solid;&quot;&gt;&lt;p style=&quot;margin:0px;margin-left:4px;&quot;&gt;+ address: Address&lt;/p&gt;&lt;p style=&quot;margin:0px;margin-left:4px;&quot;&gt;+ message: String&lt;/p&gt;&lt;p style=&quot;margin:0px;margin-left:4px;&quot;&gt;&lt;br&gt;&lt;/p&gt;" style="verticalAlign=top;align=left;overflow=fill;html=1;whiteSpace=wrap;" vertex="1" parent="1">
          <mxGeometry x="290" y="640" width="110" height="70" as="geometry" />
        </mxCell>
        <mxCell id="e1at3lpBmyxFYmU1K-rE-7" value="&lt;p style=&quot;margin:0px;margin-top:4px;text-align:center;&quot;&gt;&lt;b&gt;PaymentInfo&lt;/b&gt;&lt;/p&gt;&lt;hr size=&quot;1&quot; style=&quot;border-style:solid;&quot;&gt;&lt;p style=&quot;margin:0px;margin-left:4px;&quot;&gt;&lt;br&gt;&lt;/p&gt;&lt;p style=&quot;margin:0px;margin-left:4px;&quot;&gt;&lt;br&gt;&lt;/p&gt;" style="verticalAlign=top;align=left;overflow=fill;html=1;whiteSpace=wrap;" vertex="1" parent="1">
          <mxGeometry x="430" y="640" width="110" height="50" as="geometry" />
        </mxCell>
        <mxCell id="e1at3lpBmyxFYmU1K-rE-8" value="&lt;p style=&quot;margin:0px;margin-top:4px;text-align:center;&quot;&gt;&lt;b&gt;Address&lt;/b&gt;&lt;/p&gt;&lt;hr size=&quot;1&quot; style=&quot;border-style:solid;&quot;&gt;&lt;p style=&quot;margin:0px;margin-left:4px;&quot;&gt;+ zipCode: String&lt;/p&gt;&lt;p style=&quot;margin:0px;margin-left:4px;&quot;&gt;+ address1: String&lt;/p&gt;&lt;p style=&quot;margin:0px;margin-left:4px;&quot;&gt;+ address2: String&lt;/p&gt;&lt;p style=&quot;margin:0px;margin-left:4px;&quot;&gt;&lt;br&gt;&lt;/p&gt;" style="verticalAlign=top;align=left;overflow=fill;html=1;whiteSpace=wrap;" vertex="1" parent="1">
          <mxGeometry x="220" y="750" width="110" height="80" as="geometry" />
        </mxCell>
        <mxCell id="e1at3lpBmyxFYmU1K-rE-9" value="&lt;p style=&quot;margin:0px;margin-top:4px;text-align:center;&quot;&gt;&lt;b&gt;Receiver&lt;/b&gt;&lt;/p&gt;&lt;hr size=&quot;1&quot; style=&quot;border-style:solid;&quot;&gt;&lt;p style=&quot;margin:0px;margin-left:4px;&quot;&gt;+ name: String&lt;/p&gt;&lt;p style=&quot;margin:0px;margin-left:4px;&quot;&gt;+ phone: String&lt;/p&gt;&lt;p style=&quot;margin:0px;margin-left:4px;&quot;&gt;&lt;br&gt;&lt;/p&gt;" style="verticalAlign=top;align=left;overflow=fill;html=1;whiteSpace=wrap;" vertex="1" parent="1">
          <mxGeometry x="350" y="750" width="110" height="80" as="geometry" />
        </mxCell>
        <mxCell id="e1at3lpBmyxFYmU1K-rE-10" value="&lt;p style=&quot;margin:0px;margin-top:4px;text-align:center;&quot;&gt;&lt;b&gt;Product&lt;/b&gt;&lt;/p&gt;&lt;hr size=&quot;1&quot; style=&quot;border-style:solid;&quot;&gt;&lt;p style=&quot;margin:0px;margin-left:4px;&quot;&gt;+ name: String&lt;/p&gt;&lt;p style=&quot;margin:0px;margin-left:4px;&quot;&gt;+ price: Money&lt;/p&gt;&lt;p style=&quot;margin:0px;margin-left:4px;&quot;&gt;+ detail: String&lt;/p&gt;&lt;p style=&quot;margin:0px;margin-left:4px;&quot;&gt;&lt;br&gt;&lt;/p&gt;" style="verticalAlign=top;align=left;overflow=fill;html=1;whiteSpace=wrap;" vertex="1" parent="1">
          <mxGeometry x="608" y="640" width="110" height="80" as="geometry" />
        </mxCell>
        <mxCell id="e1at3lpBmyxFYmU1K-rE-13" style="edgeStyle=orthogonalEdgeStyle;rounded=0;orthogonalLoop=1;jettySize=auto;html=1;exitX=1;exitY=0.75;exitDx=0;exitDy=0;endArrow=none;endFill=0;" edge="1" parent="1" source="e1at3lpBmyxFYmU1K-rE-3">
          <mxGeometry relative="1" as="geometry">
            <mxPoint x="278" y="527" as="targetPoint" />
          </mxGeometry>
        </mxCell>
        <mxCell id="e1at3lpBmyxFYmU1K-rE-15" style="edgeStyle=orthogonalEdgeStyle;rounded=0;orthogonalLoop=1;jettySize=auto;html=1;exitX=1;exitY=0.75;exitDx=0;exitDy=0;entryX=-0.003;entryY=0.888;entryDx=0;entryDy=0;entryPerimeter=0;endArrow=none;endFill=0;" edge="1" parent="1" source="e1at3lpBmyxFYmU1K-rE-4" target="e1at3lpBmyxFYmU1K-rE-2">
          <mxGeometry relative="1" as="geometry" />
        </mxCell>
        <mxCell id="e1at3lpBmyxFYmU1K-rE-17" value="&lt;font style=&quot;font-size: 8px;&quot;&gt;1&lt;/font&gt;" style="text;html=1;align=center;verticalAlign=middle;resizable=0;points=[];autosize=1;strokeColor=none;fillColor=none;" vertex="1" parent="1">
          <mxGeometry x="540" y="530" width="30" height="30" as="geometry" />
        </mxCell>
        <mxCell id="e1at3lpBmyxFYmU1K-rE-18" value="&lt;font style=&quot;font-size: 8px;&quot;&gt;1..*&lt;/font&gt;" style="text;html=1;align=center;verticalAlign=middle;resizable=0;points=[];autosize=1;strokeColor=none;fillColor=none;" vertex="1" parent="1">
          <mxGeometry x="558" y="550" width="40" height="30" as="geometry" />
        </mxCell>
        <mxCell id="e1at3lpBmyxFYmU1K-rE-20" value="&lt;font style=&quot;font-size: 8px;&quot;&gt;0..1&lt;/font&gt;" style="text;html=1;align=center;verticalAlign=middle;resizable=0;points=[];autosize=1;strokeColor=none;fillColor=none;" vertex="1" parent="1">
          <mxGeometry x="653" y="590" width="40" height="30" as="geometry" />
        </mxCell>
        <mxCell id="e1at3lpBmyxFYmU1K-rE-21" value="&lt;font style=&quot;font-size: 8px;&quot;&gt;1&lt;/font&gt;" style="text;html=1;align=center;verticalAlign=middle;resizable=0;points=[];autosize=1;strokeColor=none;fillColor=none;" vertex="1" parent="1">
          <mxGeometry x="642" y="618" width="30" height="30" as="geometry" />
        </mxCell>
        <mxCell id="e1at3lpBmyxFYmU1K-rE-23" style="edgeStyle=orthogonalEdgeStyle;rounded=0;orthogonalLoop=1;jettySize=auto;html=1;entryX=0.763;entryY=1.001;entryDx=0;entryDy=0;entryPerimeter=0;endArrow=none;endFill=0;" edge="1" parent="1" source="e1at3lpBmyxFYmU1K-rE-7" target="e1at3lpBmyxFYmU1K-rE-2">
          <mxGeometry relative="1" as="geometry" />
        </mxCell>
        <mxCell id="e1at3lpBmyxFYmU1K-rE-24" style="edgeStyle=orthogonalEdgeStyle;rounded=0;orthogonalLoop=1;jettySize=auto;html=1;exitX=0.75;exitY=0;exitDx=0;exitDy=0;entryX=0.113;entryY=1.005;entryDx=0;entryDy=0;entryPerimeter=0;endArrow=none;endFill=0;" edge="1" parent="1" source="e1at3lpBmyxFYmU1K-rE-8" target="e1at3lpBmyxFYmU1K-rE-6">
          <mxGeometry relative="1" as="geometry" />
        </mxCell>
        <mxCell id="e1at3lpBmyxFYmU1K-rE-26" style="edgeStyle=orthogonalEdgeStyle;rounded=0;orthogonalLoop=1;jettySize=auto;html=1;exitX=0.25;exitY=0;exitDx=0;exitDy=0;entryX=0.794;entryY=0.999;entryDx=0;entryDy=0;entryPerimeter=0;endArrow=none;endFill=0;" edge="1" parent="1" source="e1at3lpBmyxFYmU1K-rE-9" target="e1at3lpBmyxFYmU1K-rE-6">
          <mxGeometry relative="1" as="geometry" />
        </mxCell>
        <mxCell id="e1at3lpBmyxFYmU1K-rE-42" style="edgeStyle=orthogonalEdgeStyle;rounded=0;orthogonalLoop=1;jettySize=auto;html=1;entryX=0;entryY=0.5;entryDx=0;entryDy=0;" edge="1" parent="1" source="e1at3lpBmyxFYmU1K-rE-29" target="e1at3lpBmyxFYmU1K-rE-31">
          <mxGeometry relative="1" as="geometry" />
        </mxCell>
        <mxCell id="e1at3lpBmyxFYmU1K-rE-47" style="edgeStyle=orthogonalEdgeStyle;rounded=0;orthogonalLoop=1;jettySize=auto;html=1;entryX=0;entryY=0.5;entryDx=0;entryDy=0;" edge="1" parent="1" source="e1at3lpBmyxFYmU1K-rE-29" target="e1at3lpBmyxFYmU1K-rE-33">
          <mxGeometry relative="1" as="geometry">
            <Array as="points">
              <mxPoint x="1040" y="510" />
            </Array>
          </mxGeometry>
        </mxCell>
        <mxCell id="e1at3lpBmyxFYmU1K-rE-29" value="&lt;font face=&quot;Tahoma&quot;&gt;주문 전&lt;/font&gt;" style="rounded=1;whiteSpace=wrap;html=1;" vertex="1" parent="1">
          <mxGeometry x="980" y="380" width="120" height="60" as="geometry" />
        </mxCell>
        <mxCell id="e1at3lpBmyxFYmU1K-rE-41" style="edgeStyle=orthogonalEdgeStyle;rounded=0;orthogonalLoop=1;jettySize=auto;html=1;entryX=0;entryY=0.5;entryDx=0;entryDy=0;" edge="1" parent="1" source="e1at3lpBmyxFYmU1K-rE-30" target="e1at3lpBmyxFYmU1K-rE-29">
          <mxGeometry relative="1" as="geometry" />
        </mxCell>
        <mxCell id="e1at3lpBmyxFYmU1K-rE-30" value="" style="ellipse;whiteSpace=wrap;html=1;aspect=fixed;fillColor=#000000;" vertex="1" parent="1">
          <mxGeometry x="900" y="395" width="30" height="30" as="geometry" />
        </mxCell>
        <mxCell id="e1at3lpBmyxFYmU1K-rE-43" style="edgeStyle=orthogonalEdgeStyle;rounded=0;orthogonalLoop=1;jettySize=auto;html=1;entryX=0.5;entryY=0;entryDx=0;entryDy=0;" edge="1" parent="1" source="e1at3lpBmyxFYmU1K-rE-31" target="e1at3lpBmyxFYmU1K-rE-33">
          <mxGeometry relative="1" as="geometry" />
        </mxCell>
        <mxCell id="e1at3lpBmyxFYmU1K-rE-49" style="edgeStyle=orthogonalEdgeStyle;rounded=0;orthogonalLoop=1;jettySize=auto;html=1;entryX=0.5;entryY=0;entryDx=0;entryDy=0;" edge="1" parent="1" source="e1at3lpBmyxFYmU1K-rE-31" target="e1at3lpBmyxFYmU1K-rE-32">
          <mxGeometry relative="1" as="geometry" />
        </mxCell>
        <mxCell id="e1at3lpBmyxFYmU1K-rE-31" value="&lt;font face=&quot;Tahoma&quot;&gt;결제 대기 중&lt;/font&gt;" style="rounded=1;whiteSpace=wrap;html=1;" vertex="1" parent="1">
          <mxGeometry x="1180" y="380" width="120" height="60" as="geometry" />
        </mxCell>
        <mxCell id="e1at3lpBmyxFYmU1K-rE-50" style="edgeStyle=orthogonalEdgeStyle;rounded=0;orthogonalLoop=1;jettySize=auto;html=1;entryX=0.5;entryY=0;entryDx=0;entryDy=0;" edge="1" parent="1" source="e1at3lpBmyxFYmU1K-rE-32" target="e1at3lpBmyxFYmU1K-rE-39">
          <mxGeometry relative="1" as="geometry" />
        </mxCell>
        <mxCell id="e1at3lpBmyxFYmU1K-rE-32" value="&lt;font face=&quot;Tahoma&quot;&gt;주문 취소됨&lt;/font&gt;" style="rounded=1;whiteSpace=wrap;html=1;" vertex="1" parent="1">
          <mxGeometry x="1410" y="480" width="120" height="60" as="geometry" />
        </mxCell>
        <mxCell id="e1at3lpBmyxFYmU1K-rE-44" style="edgeStyle=orthogonalEdgeStyle;rounded=0;orthogonalLoop=1;jettySize=auto;html=1;entryX=0.5;entryY=0;entryDx=0;entryDy=0;" edge="1" parent="1" source="e1at3lpBmyxFYmU1K-rE-33" target="e1at3lpBmyxFYmU1K-rE-34">
          <mxGeometry relative="1" as="geometry" />
        </mxCell>
        <mxCell id="e1at3lpBmyxFYmU1K-rE-48" style="edgeStyle=orthogonalEdgeStyle;rounded=0;orthogonalLoop=1;jettySize=auto;html=1;entryX=0;entryY=0.5;entryDx=0;entryDy=0;" edge="1" parent="1" source="e1at3lpBmyxFYmU1K-rE-33" target="e1at3lpBmyxFYmU1K-rE-32">
          <mxGeometry relative="1" as="geometry" />
        </mxCell>
        <mxCell id="e1at3lpBmyxFYmU1K-rE-33" value="&lt;font face=&quot;Tahoma&quot;&gt;상품 준비 중&lt;/font&gt;" style="rounded=1;whiteSpace=wrap;html=1;" vertex="1" parent="1">
          <mxGeometry x="1180" y="480" width="120" height="60" as="geometry" />
        </mxCell>
        <mxCell id="e1at3lpBmyxFYmU1K-rE-45" style="edgeStyle=orthogonalEdgeStyle;rounded=0;orthogonalLoop=1;jettySize=auto;html=1;entryX=0.5;entryY=0;entryDx=0;entryDy=0;" edge="1" parent="1" source="e1at3lpBmyxFYmU1K-rE-34" target="e1at3lpBmyxFYmU1K-rE-35">
          <mxGeometry relative="1" as="geometry" />
        </mxCell>
        <mxCell id="e1at3lpBmyxFYmU1K-rE-34" value="&lt;font face=&quot;Tahoma&quot;&gt;출고 완료됨&lt;/font&gt;" style="rounded=1;whiteSpace=wrap;html=1;" vertex="1" parent="1">
          <mxGeometry x="1180" y="580" width="120" height="60" as="geometry" />
        </mxCell>
        <mxCell id="e1at3lpBmyxFYmU1K-rE-46" style="edgeStyle=orthogonalEdgeStyle;rounded=0;orthogonalLoop=1;jettySize=auto;html=1;entryX=0.5;entryY=0;entryDx=0;entryDy=0;" edge="1" parent="1" source="e1at3lpBmyxFYmU1K-rE-35" target="e1at3lpBmyxFYmU1K-rE-36">
          <mxGeometry relative="1" as="geometry" />
        </mxCell>
        <mxCell id="e1at3lpBmyxFYmU1K-rE-35" value="&lt;font face=&quot;Tahoma&quot;&gt;배송 중&lt;/font&gt;" style="rounded=1;whiteSpace=wrap;html=1;" vertex="1" parent="1">
          <mxGeometry x="1180" y="680" width="120" height="60" as="geometry" />
        </mxCell>
        <mxCell id="e1at3lpBmyxFYmU1K-rE-51" style="edgeStyle=orthogonalEdgeStyle;rounded=0;orthogonalLoop=1;jettySize=auto;html=1;entryX=0;entryY=0.5;entryDx=0;entryDy=0;" edge="1" parent="1" source="e1at3lpBmyxFYmU1K-rE-36" target="e1at3lpBmyxFYmU1K-rE-39">
          <mxGeometry relative="1" as="geometry" />
        </mxCell>
        <mxCell id="e1at3lpBmyxFYmU1K-rE-36" value="&lt;font face=&quot;Tahoma&quot;&gt;배송 완료됨&lt;/font&gt;" style="rounded=1;whiteSpace=wrap;html=1;" vertex="1" parent="1">
          <mxGeometry x="1180" y="780" width="120" height="60" as="geometry" />
        </mxCell>
        <mxCell id="e1at3lpBmyxFYmU1K-rE-39" value="" style="ellipse;html=1;shape=endState;fillColor=#000000;strokeColor=#ff0000;" vertex="1" parent="1">
          <mxGeometry x="1455" y="795" width="30" height="30" as="geometry" />
        </mxCell>
        <mxCell id="e1at3lpBmyxFYmU1K-rE-52" value="주문함&lt;div&gt;(결제안함)&lt;/div&gt;" style="text;html=1;align=center;verticalAlign=middle;resizable=0;points=[];autosize=1;strokeColor=none;fillColor=none;" vertex="1" parent="1">
          <mxGeometry x="1100" y="370" width="80" height="40" as="geometry" />
        </mxCell>
        <mxCell id="e1at3lpBmyxFYmU1K-rE-53" value="주문함(결제함)" style="text;html=1;align=center;verticalAlign=middle;resizable=0;points=[];autosize=1;strokeColor=none;fillColor=none;" vertex="1" parent="1">
          <mxGeometry x="1070" y="480" width="100" height="30" as="geometry" />
        </mxCell>
        <mxCell id="e1at3lpBmyxFYmU1K-rE-54" value="결제함" style="text;html=1;align=center;verticalAlign=middle;resizable=0;points=[];autosize=1;strokeColor=none;fillColor=none;" vertex="1" parent="1">
          <mxGeometry x="1230" y="440" width="60" height="30" as="geometry" />
        </mxCell>
        <mxCell id="e1at3lpBmyxFYmU1K-rE-55" value="주문 취소함" style="text;html=1;align=center;verticalAlign=middle;resizable=0;points=[];autosize=1;strokeColor=none;fillColor=none;" vertex="1" parent="1">
          <mxGeometry x="1310" y="380" width="90" height="30" as="geometry" />
        </mxCell>
        <mxCell id="e1at3lpBmyxFYmU1K-rE-56" value="주문 취소함/&lt;div&gt;결제 취소&lt;/div&gt;" style="text;html=1;align=center;verticalAlign=middle;resizable=0;points=[];autosize=1;strokeColor=none;fillColor=none;" vertex="1" parent="1">
          <mxGeometry x="1310" y="470" width="90" height="40" as="geometry" />
        </mxCell>
        <mxCell id="e1at3lpBmyxFYmU1K-rE-57" value="택배사에서 상품 수령함" style="text;html=1;align=center;verticalAlign=middle;resizable=0;points=[];autosize=1;strokeColor=none;fillColor=none;" vertex="1" parent="1">
          <mxGeometry x="1090" y="547" width="150" height="30" as="geometry" />
        </mxCell>
        <mxCell id="e1at3lpBmyxFYmU1K-rE-58" value="배송 시작함" style="text;html=1;align=center;verticalAlign=middle;resizable=0;points=[];autosize=1;strokeColor=none;fillColor=none;" vertex="1" parent="1">
          <mxGeometry x="1150" y="646" width="90" height="30" as="geometry" />
        </mxCell>
        <mxCell id="e1at3lpBmyxFYmU1K-rE-59" value="고객 수령함" style="text;html=1;align=center;verticalAlign=middle;resizable=0;points=[];autosize=1;strokeColor=none;fillColor=none;" vertex="1" parent="1">
          <mxGeometry x="1146" y="746" width="90" height="30" as="geometry" />
        </mxCell>
        <mxCell id="e1at3lpBmyxFYmU1K-rE-60" value="객체 기반 주문 도메인 모델" style="text;html=1;align=center;verticalAlign=middle;resizable=0;points=[];autosize=1;strokeColor=#d6b656;fillColor=#fff2cc;fontSize=17;fontStyle=1" vertex="1" parent="1">
          <mxGeometry x="310" y="890" width="230" height="30" as="geometry" />
        </mxCell>
        <mxCell id="e1at3lpBmyxFYmU1K-rE-61" value="상태 다이어그램을 이용한 주문 상태 모델링" style="text;html=1;align=center;verticalAlign=middle;resizable=0;points=[];autosize=1;strokeColor=#d6b656;fillColor=#fff2cc;fontSize=17;fontStyle=1" vertex="1" parent="1">
          <mxGeometry x="1065" y="890" width="350" height="30" as="geometry" />
        </mxCell>
      </root>
    </mxGraphModel>
  </diagram>
</mxfile>
